<svg xmlns="http://www.w3.org/2000/svg" viewBox="0 0 1000 720">
  <rect width="1000" height="720" fill="none"/>
  <g fill="none" stroke-linecap="square">
    <path d="M70 90 H930 V630 H70 Z" stroke="#5b6470" stroke-width="5" opacity="0.44"/>
    <path d="M184 132 H816 L884 360 L816 588 H184 L116 360 Z" stroke="#74808a" stroke-width="4" opacity="0.34"/>
    <path d="M294 176 H706 L758 360 L706 544 H294 L242 360 Z" stroke="#4b5560" stroke-width="3" opacity="0.42"/>
    <path d="M500 92 V628 M72 360 H928" stroke="#66717c" stroke-width="3" opacity="0.28"/>
    <path d="M184 132 L294 176 M816 132 L706 176 M184 588 L294 544 M816 588 L706 544" stroke="#77828b" stroke-width="3" opacity="0.25"/>
  </g>
  <g fill="#0b0d10" opacity="0.78">
    <rect x="132" y="482" width="154" height="52" rx="4"/>
    <rect x="714" y="482" width="154" height="52" rx="4"/>
    <rect x="132" y="186" width="154" height="52" rx="4"/>
    <rect x="714" y="186" width="154" height="52" rx="4"/>
  </g>
  <g fill="#dff7ff" opacity="0.88">
    <rect x="152" y="500" width="18" height="12"/><rect x="184" y="500" width="18" height="12"/><rect x="216" y="500" width="18" height="12"/><rect x="248" y="500" width="18" height="12"/>
    <rect x="734" y="500" width="18" height="12"/><rect x="766" y="500" width="18" height="12"/><rect x="798" y="500" width="18" height="12"/><rect x="830" y="500" width="18" height="12"/>
    <rect x="152" y="204" width="18" height="12"/><rect x="184" y="204" width="18" height="12"/><rect x="216" y="204" width="18" height="12"/><rect x="248" y="204" width="18" height="12"/>
    <rect x="734" y="204" width="18" height="12"/><rect x="766" y="204" width="18" height="12"/><rect x="798" y="204" width="18" height="12"/><rect x="830" y="204" width="18" height="12"/>
  </g>
</svg>
